<svg id="Capa_1" enable-background="new 0 0 512 512" height="512" viewBox="0 0 512 512" width="512" xmlns="http://www.w3.org/2000/svg"><g><g><g><g><g><path d="m97.869 274.736h29.944v-24.824h-5.121c-2.88-.09-5.617-3.77-7.654-5.807l-24.054-24.054c-2.211-2.211-5.796-2.211-8.008 0l-20.82 20.82 28.058 28.058c2.038 2.038 4.775 5.718 7.655 5.807z" fill="#ffbd86"/></g></g><g><g><path d="m436.052 184.495c-37.802 0-68.448-30.645-68.448-68.448 0-1.272.041-2.535.109-3.79h-233.27c-3.662 0-6.631 2.969-6.631 6.631v155.847h50.03c8.35 0 15.119 6.769 15.119 15.119 0 8.35-6.769 15.119-15.119 15.119h-23.064l76.361 76.36c5.757 5.757 6.286 15.134.807 21.155-5.85 6.428-15.811 6.605-21.886.529l21.792 21.793c2.352 2.352 3.815 5.311 4.369 8.396h205.911c3.662 0 6.631-2.969 6.631-6.631v-243.276c-4.121.774-8.365 1.196-12.711 1.196z" fill="#faea5e"/></g><g fill="#ffd600"><path d="m177.843 304.975h-23.064l36.265 36.265v-44.024c-2.585 4.626-7.524 7.759-13.201 7.759z"/><path d="m177.843 274.736c5.677 0 10.616 3.133 13.201 7.759v-163.606c0-3.662 2.969-6.631 6.631-6.631h-63.231c-3.662 0-6.631 2.969-6.631 6.631v155.847z"/></g><g><path d="m245.94 112.258v64.2c0 3.662 2.969 6.631 6.631 6.631h71.433c3.662 0 6.631-2.969 6.631-6.631v-64.2z" fill="#fd4755"/></g><g><path d="m287.299 176.458v-64.2h-41.359v64.2c0 3.662 2.969 6.631 6.631 6.631h41.358c-3.661 0-6.63-2.968-6.63-6.631z" fill="#fb2b3a"/></g></g><g><g><g><path d="m231.852 424.812-21.793-21.793c6.076 6.076 16.036 5.899 21.886-.529 5.479-6.021 4.95-15.398-.806-21.155l-76.361-76.361h23.064c8.35 0 15.119-6.769 15.119-15.119 0-8.35-6.769-15.119-15.119-15.119h-79.973c-2.88-.09-5.617-3.77-7.654-5.807l-28.058-28.058-53.005 53.005c-2.211 2.211-2.211 5.796 0 8.008l23.821 23.821c2.041 2.041 3.267 4.784 3.31 7.67.225 15.173 6.119 30.278 17.697 41.856l84.504 84.504c5.757 5.757 15.134 6.286 21.155.806 6.428-5.85 6.605-15.811.529-21.886l14.665 14.665c5.757 5.757 15.134 6.286 21.155.806 6.428-5.85 6.605-15.811.529-21.886l14.255 14.255c6.076 6.076 16.036 5.899 21.886-.529 5.48-6.021 4.951-15.398-.806-21.154z" fill="#fed2a4"/></g><g><path d="m231.852 424.812-21.793-21.793c6.076 6.076 16.036 5.899 21.886-.529 5.479-6.021 4.95-15.398-.806-21.155l-76.361-76.361h23.064c8.35 0 15.119-6.769 15.119-15.119 0-8.35-6.769-15.119-15.119-15.119h-79.973c-2.88-.09-5.617-3.77-7.654-5.807l-28.058-28.058-53.005 53.005c-2.211 2.211-2.211 5.796 0 8.008l23.821 23.821c2.041 2.041 3.267 4.784 3.31 7.67.225 15.173 6.119 30.278 17.697 41.856l84.504 84.504c5.757 5.757 15.134 6.286 21.155.806 6.428-5.85 6.605-15.811.529-21.886l14.665 14.665c5.757 5.757 15.134 6.286 21.155.806 6.428-5.85 6.605-15.811.529-21.886l14.255 14.255c6.076 6.076 16.036 5.899 21.886-.529 5.48-6.021 4.951-15.398-.806-21.154z" fill="#fed2a4"/></g><g><g><path d="m158.995 438.847-84.505-84.504c-11.578-11.578-17.472-26.682-17.697-41.856-.043-2.886-1.269-5.629-3.31-7.67l-23.821-23.821c-1.807-1.807-2.112-4.523-.964-6.665l-19.546 19.545c-2.211 2.211-2.211 5.796 0 8.008l23.821 23.821c2.041 2.041 3.267 4.784 3.31 7.67.225 15.173 6.119 30.278 17.697 41.856l84.505 84.504c5.757 5.757 15.134 6.286 21.155.806 5.543-5.044 6.426-13.139 2.673-19.169-1.191-.682-2.312-1.518-3.318-2.525z" fill="#ffbd86"/></g></g></g></g></g></g><g><g><g><circle cx="436.052" cy="116.048" fill="#80d261" r="68.448"/></g><g><path d="m409.105 116.048c0-30.568 20.041-56.447 47.698-65.236-6.546-2.08-13.515-3.211-20.75-3.211-37.802 0-68.448 30.645-68.448 68.448 0 37.802 30.645 68.448 68.448 68.448 7.235 0 14.204-1.131 20.75-3.211-27.657-8.791-47.698-34.671-47.698-65.238z" fill="#68ca44"/></g></g></g><g><path d="m288.288 315.445c4.143 0 7.5-3.358 7.5-7.5v-70.739l22.598 26.194c1.483 1.719 3.576 2.601 5.682 2.601 1.735 0 3.479-.599 4.896-1.821 3.136-2.706 3.485-7.441.779-10.578l-35.776-41.469c-1.425-1.652-3.498-2.601-5.679-2.601s-4.254.95-5.679 2.601l-35.775 41.469c-2.706 3.136-2.356 7.872.779 10.578 3.135 2.705 7.871 2.358 10.578-.78l22.597-26.193v70.738c0 4.142 3.357 7.5 7.5 7.5z"/><path d="m241.993 367.483c0 4.142 3.357 7.5 7.5 7.5h77.591c4.143 0 7.5-3.358 7.5-7.5s-3.357-7.5-7.5-7.5h-77.591c-4.143 0-7.5 3.358-7.5 7.5z"/><path d="m461.685 94.816-29.98 29.981-21.284-21.285c-2.93-2.929-7.678-2.929-10.607 0s-2.929 7.678 0 10.606l26.588 26.588c1.465 1.464 3.385 2.197 5.304 2.197s3.839-.732 5.304-2.197l35.284-35.284c2.929-2.929 2.929-7.678 0-10.606-2.932-2.929-7.68-2.929-10.609 0z"/><path d="m436.053 40.1c-38.042 0-69.635 28.116-75.105 64.658h-226.503c-7.792 0-14.132 6.339-14.132 14.131v119.885l-24.025-24.026c-5.132-5.131-13.479-5.132-18.615 0l-31.083 31.083c-2.93 2.929-2.93 7.677-.001 10.606s7.678 2.929 10.606 0l4.961-4.96 22.754 22.755c.325.325.67.702 1.034 1.096 2.476 2.681 6.218 6.733 11.69 6.904.077.002.155.003.233.003h79.975c4.201 0 7.619 3.418 7.619 7.619s-3.418 7.619-7.619 7.619h-23.064c-3.033 0-5.769 1.827-6.929 4.63-1.161 2.803-.52 6.028 1.625 8.173l76.36 76.36c3.001 3.001 3.254 7.847.563 10.803-1.424 1.565-3.366 2.454-5.468 2.503-2.133.055-4.081-.743-5.567-2.229-.003-.003-.006-.005-.009-.008l-59.86-59.861c-2.929-2.929-7.677-2.929-10.607 0-2.929 2.929-2.929 7.678 0 10.606l81.667 81.667c2.995 3.001 3.247 7.843.558 10.797-1.424 1.565-3.365 2.454-5.467 2.503-2.104.045-4.082-.742-5.569-2.229l-14.254-14.254-67.709-67.709c-2.929-2.929-7.677-2.93-10.607 0-2.929 2.929-2.929 7.678 0 10.606l67.712 67.712c.06.06.119.133.179.197 1.365 1.463 2.095 3.356 2.047 5.369-.05 2.101-.938 4.043-2.503 5.467-2.956 2.688-7.798 2.438-10.798-.558l-67.412-67.412c-2.93-2.929-7.678-2.929-10.607 0s-2.929 7.678 0 10.606l52.737 52.737c.001.001.003.003.004.005h.001l.001.001c1.486 1.487 2.278 3.464 2.229 5.568-.05 2.102-.938 4.043-2.503 5.467-2.955 2.69-7.804 2.437-10.804-.563l-84.505-84.504c-9.791-9.791-15.296-22.812-15.502-36.661-.07-4.817-2.025-9.386-5.505-12.865l-22.522-22.517 16.693-16.693c2.93-2.929 2.93-7.677.001-10.606s-7.678-2.929-10.606 0l-17.994 17.992c-5.131 5.132-5.131 13.481 0 18.614l23.822 23.822c.694.695 1.101 1.597 1.113 2.478.264 17.774 7.329 34.482 19.893 47.047l84.505 84.504c4.559 4.559 10.513 6.861 16.435 6.861 5.414 0 10.802-1.925 15.072-5.811 2.235-2.034 4.004-4.429 5.252-7.064 8.746 8.339 22.296 8.66 31.097.65 2.241-2.04 4.014-4.442 5.263-7.086 4.27 3.853 9.92 5.966 15.698 5.83 6.24-.146 11.997-2.776 16.208-7.403 2.737-3.007 4.478-6.572 5.282-10.307h198.644c7.792 0 14.132-6.339 14.132-14.131v-51.593c0-4.142-3.357-7.5-7.5-7.5s-7.5 3.358-7.5 7.5v50.724h-199.676c-1.106-2.232-2.569-4.336-4.432-6.199l-6.722-6.721c2.633-1.248 5.026-3.016 7.059-5.25 8.137-8.941 7.676-22.78-1.05-31.506l-63.558-63.557h4.958c12.473 0 22.619-10.147 22.619-22.619s-10.146-22.619-22.619-22.619h-42.53v-147.479h103.128v56.7c0 7.792 6.339 14.131 14.131 14.131h71.433c7.792 0 14.131-6.339 14.131-14.131v-9.475c0-4.142-3.357-7.5-7.5-7.5s-7.5 3.358-7.5 7.5v8.606h-69.694v-55.832h69.694v12.226c0 4.142 3.357 7.5 7.5 7.5s7.5-3.358 7.5-7.5v-12.226h22.063c1.942 40.161 35.22 72.237 75.854 72.237 1.753 0 3.487-.081 5.21-.199v148.187c0 4.142 3.357 7.5 7.5 7.5s7.5-3.358 7.5-7.5v-150.74c32.095-8.872 55.737-38.315 55.737-73.194 0-41.878-34.069-75.948-75.947-75.948zm-315.74 227.137h-21.298c-.606-.521-1.48-1.467-2.05-2.083-.509-.551-.994-1.073-1.447-1.527l-22.755-22.755 14.217-14.217 22.756 22.756c.325.325.67.702 1.035 1.097 2.137 2.314 5.22 5.643 9.542 6.622zm315.74-90.242c-33.607 0-60.948-27.341-60.948-60.947 0-33.607 27.341-60.948 60.948-60.948 33.606 0 60.947 27.341 60.947 60.948s-27.341 60.947-60.947 60.947z"/></g></g></svg>