<svg height="512" viewBox="0 0 512 512" width="512" xmlns="http://www.w3.org/2000/svg"><g><g fill="#57a4ff"><path d="m324 88h-288a19.994 19.994 0 0 0 -20 20v12h328v-12a19.994 19.994 0 0 0 -20-20z"/><path d="m16 280h328v32h-328z"/><path d="m408 344a40 40 0 1 0 40 40 40 40 0 0 0 -40-40zm0 56a16 16 0 1 1 16-16 16 16 0 0 1 -16 16z"/><path d="m96 344a40 40 0 1 0 40 40 40 40 0 0 0 -40-40zm0 56a16 16 0 1 1 16-16 16 16 0 0 1 -16 16z"/><path d="m208 344a40 40 0 1 0 40 40 40 40 0 0 0 -40-40zm0 56a16 16 0 1 1 16-16 16 16 0 0 1 -16 16z"/><path d="m445.71 184h-69.71v88h120z"/><path d="m456 312a15.979 15.979 0 0 0 16 16h24v-32h-24a16 16 0 0 0 -16 16z"/></g><g fill="#004fac"><path d="m408 360a24 24 0 1 0 24 24 24.027 24.027 0 0 0 -24-24zm0 32a8 8 0 1 1 8-8 8.009 8.009 0 0 1 -8 8z"/><path d="m96 360a24 24 0 1 0 24 24 24.027 24.027 0 0 0 -24-24zm0 32a8 8 0 1 1 8-8 8.009 8.009 0 0 1 -8 8z"/><path d="m208 360a24 24 0 1 0 24 24 24.027 24.027 0 0 0 -24-24zm0 32a8 8 0 1 1 8-8 8.009 8.009 0 0 1 -8 8z"/><path d="m502.95 268.03-64-112a8.019 8.019 0 0 0 -6.95-4.03h-80v-44a28.031 28.031 0 0 0 -28-28h-288a28.031 28.031 0 0 0 -28 28v256a28.031 28.031 0 0 0 28 28h12.68a47.99 47.99 0 0 0 94.64 0h17.36a47.99 47.99 0 0 0 94.64 0h105.36a47.99 47.99 0 0 0 94.64 0h20.68a28.031 28.031 0 0 0 28-28v-92a8.017 8.017 0 0 0 -1.05-3.97zm-406.95 147.97a32 32 0 1 1 32-32 32.036 32.036 0 0 1 -32 32zm112 0a32 32 0 1 1 32-32 32.036 32.036 0 0 1 -32 32zm128-40h-80.68a47.99 47.99 0 0 0 -94.64 0h-17.36a47.99 47.99 0 0 0 -94.64 0h-12.68a12.01 12.01 0 0 1 -12-12v-44h312zm0-72h-312v-16h312zm0-32h-312v-144h312zm0-160h-312v-4a12.01 12.01 0 0 1 12-12h288a12.01 12.01 0 0 1 12 12zm105.07 80 41.14 72h-98.21v-72zm-33.07 224a32 32 0 1 1 32-32 32.036 32.036 0 0 1 -32 32zm80-96h-16a8 8 0 0 1 0-16h16zm0-32h-16a24 24 0 0 0 0 48h16v28a12.01 12.01 0 0 1 -12 12h-20.68a47.99 47.99 0 0 0 -94.64 0h-8.68v-208h75.36l4.57 8h-55.93a8 8 0 0 0 -8 8v88a8 8 0 0 0 8 8h112z"/></g></g></svg>